<svg width="28" height="30" viewBox="0 0 28 30" fill="none" xmlns="http://www.w3.org/2000/svg">
<path d="M0.500153 16.5C0.500153 20.0804 1.92247 23.5142 4.45421 26.0459C6.98595 28.5777 10.4197 30 14.0002 30C14.0002 26.4196 12.5778 22.9858 10.0461 20.4541C7.51435 17.9223 4.08057 16.5 0.500153 16.5ZM14.0002 30C17.5806 30 21.0144 28.5777 23.5461 26.0459C26.0778 23.5142 27.5002 20.0804 27.5002 16.5C23.9197 16.5 20.486 17.9223 17.9542 20.4541C15.4225 22.9858 14.0002 26.4196 14.0002 30ZM23.0002 1.5V9C23.0002 11.3869 22.0519 13.6761 20.3641 15.364C18.6763 17.0518 16.3871 18 14.0002 18C11.6132 18 9.32402 17.0518 7.63619 15.364C5.94836 13.6761 5.00015 11.3869 5.00015 9V1.5C6.11015 1.5 7.20515 1.68 8.24015 2.085C9.06515 2.43 9.80015 2.94 10.4152 3.585L14.0002 0L17.5852 3.585C18.2002 2.94 18.9352 2.43 19.7602 2.085C20.7941 1.68906 21.8931 1.49062 23.0002 1.5Z" fill="#ECECEC"/>
</svg>
