<svg width="25" height="30" viewBox="0 0 25 30" fill="none" xmlns="http://www.w3.org/2000/svg">
<path d="M24.5002 16.5V27C24.5002 27.7957 24.1842 28.5587 23.6216 29.1213C23.059 29.6839 22.2959 30 21.5002 30C20.7046 30 19.9415 29.6839 19.3789 29.1213C18.8163 28.5587 18.5002 27.7957 18.5002 27V19.5H15.5002V4.50002C15.5002 3.30654 15.9743 2.16195 16.8183 1.31803C17.6622 0.474121 18.8068 1.52588e-05 20.0002 1.52588e-05L24.5002 1.52588e-05V16.5ZM3.50024 15C2.70459 15 1.94153 14.6839 1.37892 14.1213C0.816315 13.5587 0.500244 12.7957 0.500244 12V1.50002C0.500244 1.10219 0.658279 0.72066 0.939584 0.439355C1.22089 0.158051 1.60242 1.52588e-05 2.00024 1.52588e-05C2.39807 1.52588e-05 2.7796 0.158051 3.0609 0.439355C3.34221 0.72066 3.50024 1.10219 3.50024 1.50002V7.50002H5.00024V1.50002C5.00024 1.10219 5.15828 0.72066 5.43958 0.439355C5.72089 0.158051 6.10242 1.52588e-05 6.50024 1.52588e-05C6.89807 1.52588e-05 7.2796 0.158051 7.5609 0.439355C7.84221 0.72066 8.00024 1.10219 8.00024 1.50002V7.50002H9.50024V1.50002C9.50024 1.10219 9.65828 0.72066 9.93958 0.439355C10.2209 0.158051 10.6024 1.52588e-05 11.0002 1.52588e-05C11.3981 1.52588e-05 11.7796 0.158051 12.0609 0.439355C12.3422 0.72066 12.5002 1.10219 12.5002 1.50002V12C12.5002 12.7957 12.1842 13.5587 11.6216 14.1213C11.059 14.6839 10.2959 15 9.50024 15V27C9.50024 27.7957 9.18417 28.5587 8.62156 29.1213C8.05896 29.6839 7.29589 30 6.50024 30C5.70459 30 4.94153 29.6839 4.37892 29.1213C3.81631 28.5587 3.50024 27.7957 3.50024 27V15Z" fill="#ECECEC"/>
</svg>
