<svg width="48" height="45" viewBox="0 0 48 45" fill="none" xmlns="http://www.w3.org/2000/svg">
<path d="M9.26261 1.03124C9.5384 0.709266 9.88077 0.450769 10.2662 0.273538C10.6516 0.0963076 11.0708 0.00454977 11.4951 0.00457764H36.5814C37.0057 0.00454977 37.4249 0.0963076 37.8103 0.273538C38.1957 0.450769 38.5381 0.709266 38.8139 1.03124L46.4778 9.96031C47.1621 10.7577 47.5382 11.7731 47.5382 12.8232V13.5712C47.5384 15.0232 47.0843 16.4389 46.2393 17.6205C45.3944 18.8021 44.2008 19.6906 42.8255 20.1617C41.4502 20.6328 39.9619 20.6631 38.5685 20.2483C37.1751 19.8335 35.9463 18.9943 35.0539 17.848C34.4022 18.6863 33.567 19.3645 32.6123 19.8307C31.6576 20.297 30.6088 20.5389 29.5461 20.5379C28.4833 20.5391 27.4343 20.2973 26.4796 19.831C25.5249 19.3648 24.6898 18.6865 24.0382 17.848C23.3867 18.6865 22.5515 19.3648 21.5968 19.831C20.6421 20.2973 19.5932 20.5391 18.5304 20.5379C17.4677 20.5391 16.4187 20.2973 15.464 19.831C14.5093 19.3648 13.6742 18.6865 13.0226 17.848C12.1302 18.9943 10.9014 19.8335 9.508 20.2483C8.11462 20.6631 6.62625 20.6328 5.25094 20.1617C3.87563 19.6906 2.68209 18.8021 1.83715 17.6205C0.992205 16.4389 0.538078 15.0232 0.538239 13.5712V12.8232C0.538276 11.7731 0.914405 10.7577 1.59868 9.96031L9.26555 1.02831L9.26261 1.03124ZM14.4914 13.5712C14.4914 14.641 14.9169 15.6668 15.6744 16.4232C16.4318 17.1796 17.4592 17.6046 18.5304 17.6046C19.6017 17.6046 20.629 17.1796 21.3865 16.4232C22.1439 15.6668 22.5695 14.641 22.5695 13.5712C22.5695 13.1823 22.7242 12.8092 22.9997 12.5342C23.2751 12.2591 23.6487 12.1046 24.0382 12.1046C24.4278 12.1046 24.8014 12.2591 25.0768 12.5342C25.3522 12.8092 25.507 13.1823 25.507 13.5712C25.507 14.641 25.9325 15.6668 26.69 16.4232C27.4475 17.1796 28.4748 17.6046 29.5461 17.6046C30.6173 17.6046 31.6446 17.1796 32.4021 16.4232C33.1596 15.6668 33.5851 14.641 33.5851 13.5712C33.5851 13.1823 33.7399 12.8092 34.0153 12.5342C34.2907 12.2591 34.6643 12.1046 35.0539 12.1046C35.4434 12.1046 35.817 12.2591 36.0924 12.5342C36.3679 12.8092 36.5226 13.1823 36.5226 13.5712C36.5226 14.641 36.9482 15.6668 37.7056 16.4232C38.4631 17.1796 39.4905 17.6046 40.5617 17.6046C41.6329 17.6046 42.6603 17.1796 43.4177 16.4232C44.1752 15.6668 44.6007 14.641 44.6007 13.5712V12.8232C44.6008 12.4737 44.4758 12.1356 44.2482 11.8699L36.5814 2.93791H11.4951L3.82824 11.8699C3.60072 12.1356 3.47571 12.4737 3.47574 12.8232V13.5712C3.47574 14.641 3.90128 15.6668 4.65875 16.4232C5.41622 17.1796 6.44357 17.6046 7.5148 17.6046C8.58603 17.6046 9.61338 17.1796 10.3708 16.4232C11.1283 15.6668 11.5539 14.641 11.5539 13.5712C11.5539 13.1823 11.7086 12.8092 11.9841 12.5342C12.2595 12.2591 12.6331 12.1046 13.0226 12.1046C13.4122 12.1046 13.7857 12.2591 14.0612 12.5342C14.3366 12.8092 14.4914 13.1823 14.4914 13.5712ZM4.94449 22.0046C5.33403 22.0046 5.70761 22.1591 5.98305 22.4342C6.2585 22.7092 6.41324 23.0823 6.41324 23.4712V41.0712H9.35074V26.4046C9.35074 25.6266 9.66022 24.8805 10.2111 24.3304C10.762 23.7803 11.5092 23.4712 12.2882 23.4712H21.1007C21.8798 23.4712 22.627 23.7803 23.1779 24.3304C23.7288 24.8805 24.0382 25.6266 24.0382 26.4046V41.0712H41.6632V23.4712C41.6632 23.0823 41.818 22.7092 42.0934 22.4342C42.3689 22.1591 42.7425 22.0046 43.132 22.0046C43.5215 22.0046 43.8951 22.1591 44.1706 22.4342C44.446 22.7092 44.6007 23.0823 44.6007 23.4712V41.0712H46.0695C46.459 41.0712 46.8326 41.2258 47.1081 41.5008C47.3835 41.7759 47.5382 42.1489 47.5382 42.5379C47.5382 42.9269 47.3835 43.2999 47.1081 43.575C46.8326 43.8501 46.459 44.0046 46.0695 44.0046H2.00699C1.61745 44.0046 1.24387 43.8501 0.968426 43.575C0.692981 43.2999 0.538239 42.9269 0.538239 42.5379C0.538239 42.1489 0.692981 41.7759 0.968426 41.5008C1.24387 41.2258 1.61745 41.0712 2.00699 41.0712H3.47574V23.4712C3.47574 23.0823 3.63048 22.7092 3.90593 22.4342C4.18137 22.1591 4.55495 22.0046 4.94449 22.0046ZM12.2882 41.0712H21.1007V26.4046H12.2882V41.0712ZM26.9757 26.4046C26.9757 25.6266 27.2852 24.8805 27.8361 24.3304C28.387 23.7803 29.1342 23.4712 29.9132 23.4712H35.7882C36.5673 23.4712 37.3145 23.7803 37.8654 24.3304C38.4163 24.8805 38.7257 25.6266 38.7257 26.4046V35.2046C38.7257 35.9825 38.4163 36.7287 37.8654 37.2788C37.3145 37.8289 36.5673 38.1379 35.7882 38.1379H29.9132C29.1342 38.1379 28.387 37.8289 27.8361 37.2788C27.2852 36.7287 26.9757 35.9825 26.9757 35.2046V26.4046ZM35.7882 26.4046H29.9132V35.2046H35.7882V26.4046Z" fill="#ECECEC"/>
</svg>
