<svg width="20" height="20" viewBox="0 0 20 20" fill="none" xmlns="http://www.w3.org/2000/svg">
<path d="M12.0419 0.527652L12.0402 0.528183C11.9473 0.556872 11.8613 0.608219 11.7904 0.679075C11.7264 0.743058 11.6781 0.820009 11.6479 0.903707L11.6477 0.904237C11.6238 0.970138 11.6114 1.04008 11.6114 1.11111V7.77778C11.6114 7.93964 11.6758 8.09516 11.7904 8.20982C11.9051 8.32447 12.0606 8.38889 12.2225 8.38889H18.8891C19.051 8.38889 19.2065 8.32447 19.3212 8.20982C19.4358 8.09516 19.5002 7.93964 19.5002 7.77778V1.11111C19.5002 1.03085 19.4844 0.952046 19.4546 0.879331C19.4241 0.805214 19.3789 0.73685 19.3212 0.679074C19.2697 0.627626 19.2103 0.586559 19.1454 0.556668L12.0419 0.527652ZM12.0419 0.527652C12.1 0.509477 12.1609 0.5 12.2225 0.5H18.8891C18.9775 0.5 19.0647 0.51947 19.1454 0.556641L12.0419 0.527652ZM7.92427 8.37072L7.92671 8.3701C8.03305 8.34359 8.13149 8.28839 8.21006 8.20981C8.32472 8.09516 8.38913 7.93964 8.38913 7.77778V1.11111C8.38913 0.949252 8.32472 0.793731 8.21006 0.679074C8.0954 0.564417 7.93988 0.5 7.77802 0.5H1.11136C0.949497 0.5 0.793975 0.564418 0.679318 0.679074C0.564662 0.793731 0.500244 0.949252 0.500244 1.11111V7.77778C0.500244 7.84158 0.510112 7.90405 0.529028 7.96322L7.92427 8.37072ZM7.92427 8.37072C7.87746 8.38264 7.82831 8.38889 7.77802 8.38889H1.11136M7.92427 8.37072L1.11136 8.38889M1.11136 8.38889C0.949496 8.38889 0.793975 8.32447 0.679318 8.20982C0.609827 8.14032 0.558771 8.05597 0.529082 7.96339L1.11136 8.38889ZM8.04939 19.4363L8.04886 19.4366C7.96565 19.4779 7.87297 19.5 7.77802 19.5H1.11136C1.08196 19.5 1.05371 19.4979 1.02691 19.4939L1.02444 19.4936C0.95341 19.4835 0.88515 19.461 0.82333 19.4278C0.796431 19.413 0.771601 19.3972 0.748397 19.3803C0.723943 19.3623 0.700964 19.3426 0.679319 19.3209C0.564662 19.2063 0.500244 19.0507 0.500244 18.8889V12.2222C0.500244 12.0604 0.564662 11.9048 0.679318 11.7902C0.793975 11.6755 0.949496 11.6111 1.11136 11.6111H7.77802C7.88559 11.6111 7.99048 11.6396 8.08305 11.6928C8.12942 11.7196 8.17206 11.7522 8.21006 11.7902C8.27578 11.8559 8.32538 11.936 8.35514 12.0223L8.35552 12.0234C8.37757 12.0868 8.38913 12.154 8.38913 12.2222V18.8889C8.38913 19.0507 8.32472 19.2063 8.21006 19.3209C8.16247 19.3685 8.10829 19.4072 8.04939 19.4363ZM8.88913 12.2222C8.88913 12.0974 8.86797 11.9748 8.82783 11.8593L8.56361 19.6745C8.77195 19.4661 8.88913 19.1835 8.88913 18.8889V12.2222ZM11.9606 19.4409L11.9591 19.4402C11.8977 19.4111 11.8407 19.3712 11.7904 19.3209C11.6758 19.2063 11.6114 19.0507 11.6114 18.8889V12.2222C11.6114 12.1389 11.6285 12.0571 11.6609 11.9817C11.6919 11.91 11.7359 11.8447 11.7904 11.7902C11.9051 11.6755 12.0606 11.6111 12.2225 11.6111H18.8891C19.051 11.6111 19.2065 11.6755 19.3212 11.7902C19.4358 11.9048 19.5002 12.0604 19.5002 12.2222V18.8889C19.5002 18.9597 19.4879 19.0291 19.4639 19.0952L19.4635 19.0963C19.4334 19.1802 19.3851 19.257 19.3212 19.3209C19.2065 19.4356 19.051 19.5 18.8891 19.5H12.2225C12.1307 19.5 12.041 19.4793 11.9606 19.4409Z" stroke="#969696"/>
</svg>
