<svg width="20" height="19" viewBox="0 0 20 19" fill="none" xmlns="http://www.w3.org/2000/svg">
<path d="M4.10286 17.506L4.10299 17.5065C4.07779 17.5191 4.05944 17.5201 4.04541 17.5184C4.02876 17.5163 4.00791 17.5088 3.98695 17.4921C3.9457 17.4594 3.91654 17.4028 3.92989 17.327L3.92994 17.3267L4.92591 11.6509L4.97219 11.3871L4.7783 11.2024L0.551189 7.17569C0.551142 7.17564 0.551095 7.1756 0.551049 7.17556C0.505012 7.13152 0.487644 7.06668 0.508472 6.99677C0.529089 6.92756 0.571717 6.89867 0.615176 6.89256L0.615909 6.89246L6.49331 6.05729L6.75172 6.02057L6.86933 5.78756L9.48998 0.595467C9.50715 0.561474 9.52671 0.5443 9.54239 0.534833C9.55944 0.52454 9.57924 0.519043 9.59986 0.519043C9.62048 0.519043 9.64029 0.52454 9.65734 0.534833C9.67302 0.5443 9.69258 0.561474 9.70975 0.595467L12.3304 5.78756L12.448 6.02057L12.7064 6.05729L18.5838 6.89246L18.5845 6.89256C18.628 6.89868 18.6705 6.92755 18.691 6.99648C18.7117 7.06606 18.6944 7.13087 18.6479 7.17517L18.6476 7.17541L14.4214 11.2025L14.2275 11.3872L14.2738 11.6509L15.2698 17.3267L15.2698 17.327C15.2832 17.4028 15.254 17.4594 15.2128 17.4921C15.1918 17.5088 15.171 17.5163 15.1543 17.5184C15.14 17.5202 15.1213 17.5191 15.0954 17.5058C15.0954 17.5058 15.0953 17.5058 15.0953 17.5058L9.82656 14.7988L9.59801 14.6814L9.36948 14.7988L4.10286 17.506Z" stroke="#828282"/>
</svg>
