<svg width="928" height="1050" viewBox="0 0 928 1050" fill="none" xmlns="http://www.w3.org/2000/svg">
<path d="M555.452 556.253L494.006 616.841L920.45 1049.33C650.071 652.211 651.84 400.62 927.789 7.3398L495.295 433.791L555.883 495.237L651.84 400.62C632.424 483.21 631.818 569.356 650.071 652.211L555.452 556.253Z" fill="#FFC22C"/>
<path d="M0.481449 1042.88C276.444 649.586 278.214 397.991 7.84742 0.888599L434.279 433.362L372.831 493.949L278.214 397.991C296.467 480.847 295.861 566.992 276.444 649.586L372.403 554.966L432.991 616.412L0.481449 1042.88Z" fill="#FFC22C"/>
<path d="M525.151 525.539L463.705 586.127L403.118 524.681L464.564 464.093L525.151 525.539Z" fill="#FFC22C"/>
</svg>
